<mxfile host="app.diagrams.net" modified="2021-02-15T22:21:50.482Z" agent="5.0 (Macintosh; Intel Mac OS X 11_1_0) AppleWebKit/537.36 (KHTML, like Gecko) Chrome/88.0.4324.150 Safari/537.36" etag="KcIdQ9lIZu9rSLSRmyqv" version="14.3.2" type="github">
  <diagram id="R2lEEEUBdFMjLlhIrx00" name="Page-1">
    <mxGraphModel dx="1186" dy="685" grid="1" gridSize="10" guides="1" tooltips="1" connect="1" arrows="1" fold="1" page="1" pageScale="1" pageWidth="850" pageHeight="1100" math="0" shadow="0" extFonts="Permanent Marker^https://fonts.googleapis.com/css?family=Permanent+Marker">
      <root>
        <mxCell id="0" />
        <mxCell id="1" parent="0" />
        <mxCell id="wXZxBTXJNx3XvPyXdfrl-1" value="" style="endArrow=classic;html=1;" edge="1" parent="1" source="wXZxBTXJNx3XvPyXdfrl-4" target="wXZxBTXJNx3XvPyXdfrl-8">
          <mxGeometry width="50" height="50" relative="1" as="geometry">
            <mxPoint x="332" y="220" as="sourcePoint" />
            <mxPoint x="415" y="270" as="targetPoint" />
          </mxGeometry>
        </mxCell>
        <mxCell id="wXZxBTXJNx3XvPyXdfrl-4" value="&lt;b&gt;NEUROSITY&lt;br&gt;DATABASE&lt;/b&gt;" style="rounded=0;whiteSpace=wrap;html=1;" vertex="1" parent="1">
          <mxGeometry x="160" y="115" width="150" height="80" as="geometry" />
        </mxCell>
        <mxCell id="wXZxBTXJNx3XvPyXdfrl-5" value="&lt;b&gt;EMULATOR / HEADSET / DEV CONSOLE&lt;/b&gt;&lt;br&gt;&lt;br&gt;Dev console records data coming from emulator and/or headset and stores that data in the database" style="rounded=0;whiteSpace=wrap;html=1;" vertex="1" parent="1">
          <mxGeometry x="460" y="100" width="225" height="110" as="geometry" />
        </mxCell>
        <mxCell id="wXZxBTXJNx3XvPyXdfrl-7" value="" style="endArrow=classic;html=1;entryX=1;entryY=0.5;entryDx=0;entryDy=0;" edge="1" parent="1" source="wXZxBTXJNx3XvPyXdfrl-5" target="wXZxBTXJNx3XvPyXdfrl-4">
          <mxGeometry width="50" height="50" relative="1" as="geometry">
            <mxPoint x="410" y="400" as="sourcePoint" />
            <mxPoint x="460" y="350" as="targetPoint" />
          </mxGeometry>
        </mxCell>
        <mxCell id="wXZxBTXJNx3XvPyXdfrl-8" value="OUR APP&lt;br&gt;&lt;span style=&quot;font-weight: normal&quot;&gt;&lt;br&gt;Connects to the database so our app has access to user accounts/recordings&lt;/span&gt;" style="rounded=0;whiteSpace=wrap;html=1;fontStyle=1" vertex="1" parent="1">
          <mxGeometry x="150" y="310" width="170" height="110" as="geometry" />
        </mxCell>
      </root>
    </mxGraphModel>
  </diagram>
</mxfile>
